<svg xmlns="http://www.w3.org/2000/svg" viewBox="0 0 193.58 133.9"><defs><style>.cls-1{fill:#fff;}</style></defs><g id="Layer_2" data-name="Layer 2"><g id="Layer_1-2" data-name="Layer 1"><g id="l3AyKA.tif"><path class="cls-1" d="M157.35,133.9V97.05a6.19,6.19,0,0,1,1-.2c5.93,0,11.86-.18,17.77.09,9.25.43,15.49,6.15,17.1,15.24.1.54.26,1.07.39,1.61v3a12.87,12.87,0,0,0-.37,1.25c-1.66,8.2-6.52,13.35-14.67,15.38-.47.11-.93.31-1.4.46Zm9.13-28v18.9c3.15,0,6.21.06,9.26,0,4.66-.11,8.42-4.12,8.71-9.18.27-4.68-3-9.17-7.5-9.63A101.22,101.22,0,0,0,166.48,105.91Z"></path><path class="cls-1" d="M119.1,133.9V116.48c.66,0,1.25-.09,1.84-.09h13.92a10.33,10.33,0,0,0,1.67-.09,5.05,5.05,0,0,0,4.53-5,5.38,5.38,0,0,0-5.14-5.23c-2.85-.12-5.71,0-8.56,0h-8.17V97a10.49,10.49,0,0,1,1.27-.15c5.48,0,11,0,16.44,0,11.65.08,16.26,13.58,11.61,21.17-1.11,1.81-2.85,3.22-4.48,5,1.86,2.55,3.93,5.36,6,8.21.6.84,1.1,1.77,1.65,2.66H140.57c-1.85-2.85-3.69-5.7-5.57-8.53a1.6,1.6,0,0,0-1-.74c-1.87-.07-3.76,0-5.84,0v9.31Z"></path><path class="cls-1" d="M0,133.9a14.44,14.44,0,0,1,.57-1.72q8.41-17,16.82-33.89a2.19,2.19,0,0,1,2.43-1.48c1.66.14,3.68-.44,4.9.33s1.68,2.77,2.39,4.28q7.77,16.23,15.5,32.48H32.54a7.21,7.21,0,0,0-.3-.93q-5.22-11-10.47-22a9.23,9.23,0,0,0-.55-.89c-.23.4-.38.62-.49.87q-5.22,11-10.43,22.06a5,5,0,0,0-.23.94Z"></path><path class="cls-1" d="M88.91,133.9v-29H75V97h36.72v7.82H98.15a3.81,3.81,0,0,0-.22.8q0,14.15,0,28.29Z"></path><path class="cls-1" d="M47.31,133.9V97H56.2v27.83h23v9.12Z"></path><path class="cls-1" d="M96.63,0c16,27.85,31.89,55.34,47.89,83.11H48.6Zm41.48,79.39c-1.48-2.56-2.88-4.71-4-7-.78-1.59-1.83-1.8-3.36-1.48-2.79.58-5.58,1.08-8.38,1.58L87.94,78.57c-.66.12-1.31.3-2,.45l.07.37Zm-83,0c2.94,0,5.44-.14,7.92,0,1.79.13,2.52-.56,3.1-2.17,5-14,10.12-27.92,15.19-41.88.16-.44.27-.91.4-1.36l-.34-.15ZM96.58,7.63c-1.7,2.94-3.21,5.47-4.62,8.06a1.71,1.71,0,0,0,.37,1.42q14.52,17.43,29.09,34.81a10.88,10.88,0,0,0,1,.94l.3-.25ZM88.15,48.52c2.32,6.42,4.49,12.4,6.8,18.8l12.61-15-.18-.48ZM83,39.5l-.42-.16L68.1,79.1l.38.4c2-.3,3.92-.66,5.9-.9a2.23,2.23,0,0,0,2.2-2.18c1.36-8.15,2.83-16.28,4.26-24.41Q81.93,45.76,83,39.5Zm7.17-21c-.84,2.25-1.49,4.18-2.29,6.05a1.91,1.91,0,0,0,.72,2.55q13.6,11.4,27.16,22.87a9.35,9.35,0,0,0,1,.63l.25-.3Zm41.68,50c-.59-1-.9-1.6-1.32-2.14-.76-1-1.66-1.83-2.38-2.81a2,2,0,0,0-2.72-.74Q109.6,68.66,93.7,74.43a9.26,9.26,0,0,0-1,.53l.14.4Zm-53,8.66c1.42-.48,2.44-.89,3.49-1.15a2.15,2.15,0,0,0,1.83-2.49c-.08-7.25,0-14.49-.07-21.73A11.94,11.94,0,0,0,84,50.45h-.38C82.07,59.23,80.51,68,78.9,77.16Zm20.37-7.71.23.37,25.19-9.2c-1.17-1-2-1.63-2.75-2.4-1-1-1.85-1-3.06-.26-6.06,3.58-12.18,7.06-18.27,10.59C100.15,68.82,99.71,69.15,99.27,69.45Zm8.55-22.4.25-.41L87.39,29.42c-.29,1.55-.42,2.66-.71,3.72a1.76,1.76,0,0,0,1,2.29c4.52,2.56,9,5.2,13.48,7.8Q104.5,45.15,107.82,47.05Zm-7-.7.17-.43L86.85,37.84c-.59,3.09-.53,3.21,2,4.13l2.67,1Zm16.91,9.59c-2-2.11-2.53-2.16-4.41-.57-2.77,2.32-5.55,4.65-8.31,7-.4.34-.77.73-1.15,1.09l.26.35Zm-31.1,17.6c2.66-.89,2.94-1.24,2.61-3.09q-1-5.6-2-11.17a3,3,0,0,0-.38-.76l-.21.08Zm9.1-25.91.18-.44-8.55-3.08c-.38,1.34,0,2,1.16,2.26Q92.16,47,95.75,47.63Zm-5.13,14-.49.09L91.57,70l.61.18c.29-.6,1-1.31.82-1.78C92.32,66.13,91.43,63.91,90.62,61.67Zm14.46-3.08.34.33,6.6-5.51-.19-.61c-.63,0-1.55-.27-1.84,0C108.27,54.68,106.7,56.66,105.08,58.59Z"></path></g></g></g></svg>